<?xml version="1.0" standalone="no"?>
<!DOCTYPE svg PUBLIC "-//W3C//DTD SVG 20010904//EN"
 "http://www.w3.org/TR/2001/REC-SVG-20010904/DTD/svg10.dtd">
<svg version="1.0" xmlns="http://www.w3.org/2000/svg"
 width="125.000000pt" height="125.000000pt" viewBox="0 0 125.000000 125.000000"
 preserveAspectRatio="xMidYMid meet">
<metadata>
Created by potrace 1.11, written by Peter Selinger 2001-2013
</metadata>
<g transform="translate(0.000000,125.000000) scale(0.100000,-0.100000)"
fill="#000000" stroke="none">
<path d="M865 1231 c-78 -36 -115 -99 -115 -196 l0 -64 -32 10 c-88 27 -180
29 -258 6 -171 -50 -291 -222 -277 -397 7 -93 42 -166 111 -236 78 -77 165
-116 272 -122 l82 -4 17 -39 c25 -55 59 -83 100 -83 19 0 37 3 41 7 3 3 -30
70 -74 149 l-80 142 -64 1 c-87 0 -146 35 -182 107 -32 65 -33 108 -2 175 30
64 86 104 155 111 155 15 263 -132 205 -277 -15 -39 -15 -41 14 -93 16 -29 35
-63 41 -76 12 -23 13 -23 33 -5 30 26 63 82 83 139 16 43 18 94 20 394 1 190
-1 351 -3 358 -6 17 -40 15 -87 -7z"/>
<path d="M574 756 c-22 -17 -5 -28 47 -32 21 -2 53 -11 71 -20 l33 -17 -20 23
c-38 42 -104 65 -131 46z"/>
</g>
</svg>
